# xmcd
#
# Track frame offsets:
#	150
#	20832
#	41537
#	63585
#	85150
#	103375
#	124822
#	144465
#	161000
#	182757
#	203202
#	226234
#	249745
#	251075
#	252507
#
# Disc length: 3654 seconds
#
# Revision: 1
# Processed by: cddbd v1.5.1PL2 Copyright (c) Steve Scherf et al.
# Submitted via: EasyCDDAExtractor 6.5.5.1
#
DISCID=de0e440f
DTITLE=Jorge Celedon - Juepa Je
DYEAR=2004
DGENRE=Vallenato
TTITLE0=Juepa Je
TTITLE1=Cuatro Rosas
TTITLE2=El Invierno Pasado
TTITLE3=Sin Perdon
TTITLE4=Dime Lo Que Sientes
TTITLE5=Aunque No Te Comprenda
TTITLE6=Ma Dejo Solito
TTITLE7=Lo Mas Bonito
TTITLE8=Muero Si Te Alejas
TTITLE9=Lo Perdi Todo
TTITLE10=Sin Tu Amor
TTITLE11=El Tumbaito
TTITLE12=Bonus
TTITLE13=Bonus
TTITLE14=El Invierno Pasado (Acustica)
EXTD=
EXTT0=
EXTT1=
EXTT2=
EXTT3=
EXTT4=
EXTT5=
EXTT6=
EXTT7=
EXTT8=
EXTT9=
EXTT10=
EXTT11=
EXTT12=
EXTT13=
EXTT14=
PLAYORDER=
